<svg width="16" height="16" xmlns="http://www.w3.org/2000/svg" x="0px" y="0px"
	 viewBox="0 0 422.139 422.139" style="enable-background:new 0 0 422.139 422.139;" xml:space="preserve">
<path style="fill:#3574F0;" d="M286.302,67.135L153.6,13.845c-0.522,0-0.522,0-1.045-0.522c-1.045,0-1.567-0.522-2.612-0.522
	c-0.522,0-1.045,0-1.567,0s-1.567,0-2.09,0c-0.522,0-1.045,0-1.567,0.522c-0.522,0-1.045,0-1.567,0.522L10.971,53.551
	C4.18,55.641,0,61.388,0,68.702v311.38c0,4.702,2.09,9.404,6.269,12.539c2.612,2.09,6.269,3.135,9.404,3.135
	c1.567,0,3.135,0,4.702-0.522l126.955-38.139l127.478,51.2c2.09,0.522,3.657,1.045,5.747,1.045c3.135,0,6.269-1.045,8.882-2.612
	c4.18-3.135,6.792-7.837,6.792-13.061V81.763C296.229,75.494,292.571,69.747,286.302,67.135z M31.347,79.673L132.18,49.371v278.465
	L31.347,358.139C31.347,358.139,31.347,79.673,31.347,79.673z M264.882,370.155l-101.355-40.751V51.461l101.355,40.751
	L264.882,370.155L264.882,370.155z"/>
	<path style="fill:#3574F0;" d="M416.392,43.102c-3.657-3.135-8.359-4.18-13.061-3.135L277.42,66.612
	c-7.314,1.567-12.539,7.837-12.539,15.151v311.38c0,4.702,2.09,9.404,5.747,12.016c2.612,2.09,6.269,3.657,9.927,3.657
	c1.045,0,2.09,0,3.135-0.522l125.91-26.645c7.314-1.567,12.539-7.837,12.539-15.151V55.118
	C422.139,50.416,420.049,45.714,416.392,43.102z M390.792,353.959l-94.563,19.853V94.302l94.563-19.853V353.959z"/>
</svg>
