<svg width="16" height="16" xmlns="http://www.w3.org/2000/svg" x="0px" y="0px"
	 viewBox="0 0 459.755 459.755" style="enable-background:new 0 0 459.755 459.755;" xml:space="preserve">
<g>
	<path style="fill:#834DF0;" d="M159.869,353.698c-3.657,0-6.792-1.045-9.927-3.657l-78.367-62.694
		c-3.657-3.135-5.747-7.314-5.747-12.016c0-4.702,2.09-9.404,5.747-12.016l78.367-62.694c6.792-5.224,16.718-4.18,21.943,2.612
		c5.224,6.792,4.18,16.718-2.612,21.943l-63.216,50.678l63.216,50.678c6.792,5.224,7.837,15.151,2.612,21.943
		C169.273,351.608,164.571,353.698,159.869,353.698z"/>
	<path style="fill:#834DF0;" d="M295.706,353.698c-4.702,0-9.404-2.09-12.016-5.747c-5.224-6.792-4.18-16.718,2.612-21.943
		l63.216-50.678l-63.739-50.678c-6.792-5.224-7.837-15.151-2.612-21.943c5.224-6.792,15.151-7.837,21.943-2.612l78.367,62.694
		c3.657,3.135,5.747,7.314,5.747,12.016c0,4.702-2.09,9.404-5.747,12.016l-78.367,62.694
		C302.498,352.653,299.363,353.698,295.706,353.698z"/>
	<path style="fill:#834DF0;" d="M196.963,400.718c-1.045,0-2.612,0-3.657-0.522c-8.359-2.09-13.584-10.449-11.494-18.808
		l55.38-217.861c2.09-8.359,10.449-13.584,18.808-11.494c8.359,2.09,13.584,10.449,11.494,18.808l-55.38,217.861
		C210.547,396.016,203.755,400.718,196.963,400.718z"/>
</g>
</svg>
