<svg width="16" height="16" xmlns="http://www.w3.org/2000/svg" x="0px" y="0px"
	 viewBox="0 0 476.473 476.473" style="enable-background:new 0 0 476.473 476.473;" xml:space="preserve">
<path style="fill:#3574F0;" d="M357.094,321.306H119.38c-56.947,0-102.922-43.886-102.922-97.698
	c0-34.482,18.808-65.829,49.11-83.592c-2.09-8.359-2.612-16.718-2.612-25.078C62.955,51.722,114.678,0,177.894,0
	c36.049,0,70.008,17.241,91.429,45.453c5.747-1.045,12.016-1.567,18.808-1.567c52.767,0,96.653,38.139,102.4,86.727
	c41.273,13.584,69.486,50.155,69.486,92.996C460.016,277.42,414.041,321.306,357.094,321.306z M177.894,31.347
	c-45.976,0-83.592,37.616-83.592,83.592c0,9.404,1.567,18.808,4.702,28.212c2.612,7.837-1.045,16.718-8.882,19.853
	c-25.6,10.449-42.318,34.482-42.318,60.604c0,36.571,31.869,66.351,71.576,66.351h237.714c39.706,0,71.576-29.78,71.576-66.351
	c0-31.869-22.988-58.514-56.424-65.306c-7.314-1.567-12.539-7.837-12.539-15.151v-1.567c0-36.571-31.869-66.351-71.576-66.351
	c-6.269,0-13.061,1.045-21.943,3.135c-6.792,1.567-13.584-1.045-17.241-6.792C234.318,46.498,206.629,31.347,177.894,31.347z"/>
	<path style="fill:#6C707E;" d="M435.984,399.673H297.535c-5.747-20.898-22.465-37.616-43.363-43.363V197.486
	c0-8.882-6.792-15.673-15.673-15.673s-15.673,6.792-15.673,15.673V356.31c-20.898,5.747-37.616,22.465-43.363,43.363H48.849
	c-8.882,0-15.673,6.792-15.673,15.673s6.792,15.673,15.673,15.673h130.612c6.792,26.122,30.824,45.453,59.037,45.453
	c28.212,0,52.245-19.331,59.037-45.453h138.449c8.882,0,15.673-6.792,15.673-15.673S444.865,399.673,435.984,399.673z
	 M238.498,445.126c-16.196,0-29.78-13.584-29.78-29.78c0-16.196,13.584-29.78,29.78-29.78s29.78,13.584,29.78,29.78
	C268.278,431.543,254.694,445.126,238.498,445.126z"/>
</svg>
