<svg width="16" height="16" xmlns="http://www.w3.org/2000/svg" x="0px" y="0px"
	 viewBox="0 0 495.492 495.492" style="enable-background:new 0 0 495.492 495.492;" xml:space="preserve">
<path style="fill:#3574F0;" d="M165.199,469.003c-54.335,0-98.22-43.886-98.22-98.22v-78.367h31.347v78.367
	c0,37.094,29.78,66.873,66.873,66.873s66.873-30.302,66.873-67.396V124.709c0-26.645,10.449-51.722,29.257-70.008
	c18.808-18.286,43.363-28.212,70.008-28.212c53.812,0,98.22,43.886,98.22,98.22v76.278h-31.347v-76.278
	c0-37.094-29.78-66.873-66.873-66.873c-0.522,0-0.522,0-1.045,0c-17.763,0-34.482,6.792-47.02,19.331
	c-13.061,12.539-19.853,29.257-19.853,47.543V370.26C263.419,424.595,219.534,469.003,165.199,469.003z"/>
	<g>
	<path style="fill:#3574F0;" d="M148.481,313.313H15.779c-5.747,0-10.971-3.135-14.106-8.359c-2.612-5.224-2.09-11.494,1.045-16.196
		l66.351-94.563c3.135-4.18,7.837-6.792,13.061-6.792s9.927,2.612,13.061,6.792l66.351,94.563
		c3.135,4.702,3.657,10.971,1.045,16.196C159.452,310.179,154.228,313.313,148.481,313.313z M46.081,281.966h72.62l-36.049-51.722
		L46.081,281.966z"/>
		<path style="fill:#3574F0;" d="M413.362,314.358c-5.224,0-9.927-2.612-13.061-6.792l-66.351-95.086
		c-3.135-4.702-3.657-10.971-1.045-16.196c2.612-5.224,7.837-8.359,14.106-8.359h132.702c5.747,0,10.971,3.135,14.106,8.359
		c2.612,5.225,2.09,11.494-1.045,16.196l-66.351,95.086C423.289,311.746,418.587,314.358,413.362,314.358z M377.313,219.273
		l36.049,52.245l36.049-52.245H377.313z"/>
</g>
</svg>
