<svg height="40" viewBox="0 0 58 58" width="40" xmlns="http://www.w3.org/2000/svg"><g fill="none" fill-rule="evenodd"><g transform="translate(0 -1)"><path d="m48.98 11h7.02c1.1032019.0032948 1.9967052.8967981 2 2v17c0 16.0162577-12.9837423 29-29 29s-29-12.9837423-29-29v-17c.0032948-1.1032019.89679813-1.9967052 2-2z" fill="#3f5c6c"/><path d="m43 11v28c0 7.7319865-6.2680135 14-14 14s-14-6.2680135-14-14v-28z" fill="#ecf0f1"/><path d="m32 6.992s2.778-5.571 13.681-5.992c.8373055-.04109696 1.6113891.44435209 1.939 1.216.9683624 2.47840182 1.4373481 5.12375332 1.38 7.784.0573481 2.6602467-.4116376 5.3055982-1.38 7.784-.3276109.7716479-1.1016945 1.257097-1.939 1.216-10.903-.421-13.681-5.992-13.681-5.992h-6s-2.778 5.571-13.681 5.992c-.8368146.0414226-1.6107538-.4431375-1.939-1.214-.96862215-2.479026-1.43761247-5.1250829-1.38-7.786-.0573481-2.66024668.41163765-5.30559818 1.38-7.784.3276109-.77164791 1.1016945-1.25709696 1.939-1.216 10.903.421 13.681 5.992 13.681 5.992z" fill="#79CCE9"/><g fill="#40B6E0"><path d="m39 14c-2.667815-.0277786-5.2784015-.7769184-7.555-2.168-.4564596-.3072397-.5789569-.9255176-.274126-1.3835893.3048309-.45807167.9224549-.58382433 1.382126-.2814107 1.9511315 1.1656548 4.1744627 1.7977885 6.447 1.833.5522847 0 1 .4477153 1 1s-.4477153 1-1 1z"/><path d="m32 10c-.4404522.0003206-.829252-.2875769-.9574398-.70896287-.1281879-.42138597.0344238-.87702582.4004398-1.12203713 2.2770791-1.39177937 4.8884103-2.14128015 7.557-2.169.5522847 0 1 .44771525 1 1s-.4477153 1-1 1c-2.2725373.03521148-4.4958685.6673452-6.447 1.833-.1638911.10885541-.3562519.16694628-.553.167z"/><path d="m26 10c-.1964603.0001069-.3885466-.05800616-.552-.167-1.9514242-1.16582331-4.1751224-1.79796331-6.448-1.833-.5522847 0-1-.44771525-1-1s.4477153-1 1-1c2.667815.02777857 5.2784015.77691843 7.555 2.168.3666557.24448513.5300428.7001723.4022708 1.12193492-.127772.42176263-.5165789.71016398-.9572708.71006508z"/><path d="m19 14c-.5522847 0-1-.4477153-1-1s.4477153-1 1-1c2.2725373-.0352115 4.4958685-.6673452 6.447-1.833.4596711-.30241363 1.0772951-.17666097 1.382126.2814107.3048309.4580717.1823336 1.0763496-.274126 1.3835893-2.2765985 1.3910816-4.887185 2.1402214-7.555 2.168z"/></g><circle cx="29" cy="23" fill="#3f5c6c" r="3"/><circle cx="29" cy="33" fill="#3f5c6c" r="3"/><circle cx="29" cy="43" fill="#3f5c6c" r="3"/><rect fill="#40B6E0" height="10" rx="2" width="6" x="26" y="5"/></g></g></svg>