<svg width="16" height="16" xmlns="http://www.w3.org/2000/svg" x="0px" y="0px"
     viewBox="0 0 491.102 491.102" style="enable-background:new 0 0 491.102 491.102;" xml:space="preserve">
	<path style="fill:#CED0D6;" d="M440.947,384.522c-18.808,0-34.482,11.494-40.751,28.212h-94.041
	c-5.747-21.943-22.988-39.184-44.931-44.931v-54.335h-31.347v54.335c-21.943,5.747-39.184,22.988-44.931,44.931H90.906
	c-6.269-16.718-22.465-28.212-40.751-28.212c-24.033,0-43.886,19.853-43.886,43.886c0,24.033,19.853,43.886,43.886,43.886
	c18.808,0,34.482-11.494,40.751-28.212h94.041c6.792,27.167,31.347,47.02,60.604,47.02s53.812-19.853,60.604-47.02h94.041
	c6.269,16.718,22.465,28.212,40.751,28.212c24.033,0,43.886-19.853,43.886-43.886C484.833,404.376,464.98,384.522,440.947,384.522z
	 M50.155,440.947c-6.792,0-12.539-5.747-12.539-12.539c0-6.792,5.747-12.539,12.539-12.539s12.539,5.747,12.539,12.539
	C62.694,435.2,56.947,440.947,50.155,440.947z M245.551,459.755c-17.763,0-31.347-13.584-31.347-31.347s13.584-31.347,31.347-31.347
	s31.347,13.584,31.347,31.347S263.314,459.755,245.551,459.755z M440.947,440.947c-6.792,0-12.539-5.747-12.539-12.539
	c0-6.792,5.747-12.539,12.539-12.539c6.792,0,12.539,5.747,12.539,12.539C453.486,435.2,447.739,440.947,440.947,440.947z"/>
    <path style="fill:#548AF7;" d="M245.551,0c-60.604,0-125.388,17.241-125.388,55.38v148.898v1.567V281.6
	c0,38.139,64.784,55.38,125.388,55.38s125.388-17.241,125.388-55.38v-75.755v-1.567V55.38C370.939,17.241,306.155,0,245.551,0z
	 M245.551,31.347c60.604,0,92.473,17.763,94.041,24.033c-1.567,6.792-33.437,24.033-94.041,24.033S153.078,62.171,151.51,55.38l0,0
	C153.078,48.588,184.947,31.347,245.551,31.347z M151.51,93.518c24.555,11.494,60.082,17.241,94.041,17.241
	s69.486-5.747,94.041-17.241v36.571c-1.567,6.792-33.437,24.033-94.041,24.033c-61.127,0-92.473-17.763-94.041-24.033V93.518z
	 M245.551,305.633c-61.127,0-92.473-17.763-94.041-24.033v-37.616c24.555,11.494,60.082,17.241,94.041,17.241
	s69.486-5.747,94.041-17.241v37.094C338.024,287.869,306.678,305.633,245.551,305.633z M339.592,205.845
	c-1.567,6.792-33.437,24.033-94.041,24.033c-61.127,0-92.473-17.763-94.041-24.033v-1.567v-35.527
	c24.555,11.494,60.082,17.241,94.041,17.241s69.486-5.747,94.041-17.241v35.527l0,0V205.845z"/>
</svg>
