<svg width="16" height="16" version="1.1" viewBox="0 0 58 58" xmlns="http://www.w3.org/2000/svg">
  <path transform="scale(3.62)" d="m.551 2.76c-.304.000909-.55.248-.551.553v4.69c0 4.42 3.58 8 8 8 4.42 0 8-3.58 8-8v-4.69c-.000909-.304-.246-.552-.551-.553h-1.94-1.65v7.72c0 2.13-1.73 3.86-3.86 3.86-2.13 0-3.86-1.73-3.86-3.86v-7.72h-3.59z" fill="#9aa7b0" fill-opacity="0.7"/>
  <path d="m32 5.99s2.78-5.57 13.7-5.99c.837-.0411 1.61.444 1.94 1.22.968 2.48 1.44 5.12 1.38 7.78.0574 2.66-.412 5.31-1.38 7.78-.328.772-1.1 1.26-1.94 1.22-10.9-.421-13.7-5.99-13.7-5.99h-6s-2.78 5.57-13.7 5.99c-.837.0414-1.61-.443-1.94-1.21-.969-2.48-1.44-5.13-1.38-7.79-.0573-2.66.412-5.31 1.38-7.78.328-.772 1.1-1.26 1.94-1.22 10.9.421 13.7 5.99 13.7 5.99z" fill-opacity=".8" fill="#40B6E0"/>
  <g transform="translate(0,-1)" fill="#40B6E0">
    <path d="m39 14c-2.67-.0278-5.28-.777-7.56-2.17-.456-.307-.579-.926-.274-1.38.305-.458.922-.584 1.38-.281 1.95 1.17 4.17 1.8 6.45 1.83.552 0 1 .448 1 1s-.448 1-1 1z"/>
    <path d="m32 10c-.44.000321-.829-.288-.957-.709-.128-.421.0344-.877.4-1.12 2.28-1.39 4.89-2.14 7.56-2.17.552 0 1 .448 1 1 0 .552-.448 1-1 1-2.27.0352-4.5.667-6.45 1.83-.164.109-.356.167-.553.167z"/>
    <path d="m26 10c-.196.000107-.389-.058-.552-.167-1.95-1.17-4.18-1.8-6.45-1.83-.552 0-1-.448-1-1 0-.552.448-1 1-1 2.67.0278 5.28.777 7.56 2.17.367.244.53.7.402 1.12s-.517.71-.957.71z"/>
    <path d="m19 14c-.552 0-1-.448-1-1s.448-1 1-1c2.27-.0352 4.5-.667 6.45-1.83.46-.302 1.08-.177 1.38.281.305.458.182 1.08-.274 1.38-2.28 1.39-4.89 2.14-7.56 2.17z"/>
  </g>
  <g fill="#9aa7b0">
    <circle cx="29" cy="22" r="3"/>
    <circle cx="29" cy="32" r="3"/>
    <circle cx="29" cy="42" r="3"/>
  </g>
  <rect x="26" y="4" width="6" height="10" rx="2" fill="#40B6E0"/>
</svg>
