<svg id="Capa_1" enable-background="new 0 0 510 510" height="512" viewBox="0 0 510 510" width="512" xmlns="http://www.w3.org/2000/svg"><g><path d="m510 152v206c0 14.29-6.58 27.35-18.06 35.85-11.47 8.51-25.89 11-39.55 6.84-54.58-16.61-104.11-43.98-147.22-81.34l-9.81-8.5-40.36-14.345v-83.868l40.36-13.487 9.81-8.5c43.11-37.36 92.64-64.73 147.22-81.34 13.66-4.16 28.08-1.67 39.55 6.84 11.48 8.5 18.06 21.56 18.06 35.85z" fill="#515bdf"/><path d="m255 212.637v88.001l-40.36 10.211-9.81 8.5c-43.11 37.36-92.64 64.73-147.22 81.34-4.34 1.32-8.75 1.97-13.12 1.97-9.4 0-18.6-3-26.43-8.81-11.48-8.499-18.06-21.559-18.06-35.849v-206c0-14.29 6.58-27.35 18.06-35.85 11.47-8.51 25.89-11 39.55-6.84 54.58 16.61 104.11 43.98 147.22 81.34l9.81 8.5z" fill="#6ba7ff"/><path d="m84.404 300.639h-8.128v-30h8.128c33.871 0 67.561-4.719 100.132-14.024l5.65-1.614-5.65-1.614c-32.571-9.306-66.261-14.024-100.132-14.024h-8.128v-30h8.128c36.659 0 73.121 5.106 108.373 15.179l31.265 8.933v43.055l-31.265 8.933c-35.252 10.069-71.714 15.176-108.373 15.176z" fill="#515bdf"/><path d="m433.724 300.639h-8.128c-36.659 0-73.121-5.106-108.373-15.179l-31.265-8.933v-43.055l31.265-8.933c35.252-10.072 71.714-15.179 108.373-15.179h8.128v30h-8.128c-33.871 0-67.561 4.719-100.132 14.024l-5.65 1.614 5.65 1.614c32.571 9.306 66.261 14.024 100.132 14.024h8.128z" fill="#00429c"/><path d="m255 199.15h40.36v111.7h-40.36z" fill="#6ba7ff"/><path d="m214.64 199.15h40.36v111.7h-40.36z" fill="#5ecbf1"/></g></svg>